<?xml version="1.0" encoding="UTF-8" standalone="no"?>
<!-- Created with Inkscape (http://www.inkscape.org/) -->

<svg
   xmlns:dc="http://purl.org/dc/elements/1.1/"
   xmlns:cc="http://creativecommons.org/ns#"
   xmlns:rdf="http://www.w3.org/1999/02/22-rdf-syntax-ns#"
   xmlns:svg="http://www.w3.org/2000/svg"
   xmlns="http://www.w3.org/2000/svg"
   xmlns:sodipodi="http://sodipodi.sourceforge.net/DTD/sodipodi-0.dtd"
   xmlns:inkscape="http://www.inkscape.org/namespaces/inkscape"
   width="86mm"
   height="86mm"
   viewBox="0 0 86 86"
   version="1.1"
   id="svg8"
   inkscape:version="0.92.4 (5da689c313, 2019-01-14)"
   sodipodi:docname="bite_lip.svg">
  <defs
     id="defs2">
    <style
       id="style815">
      .cls-1 {
        fill: #fff;
      }

      .cls-1, .cls-2 {
        fill-rule: evenodd;
      }
    </style>
    <style
       id="style848">
      .cls-1 {
        fill: #fff;
      }

      .cls-1, .cls-2 {
        fill-rule: evenodd;
      }
    </style>
  </defs>
  <sodipodi:namedview
     id="base"
     pagecolor="#ffffff"
     bordercolor="#666666"
     borderopacity="1.0"
     inkscape:pageopacity="0.0"
     inkscape:pageshadow="2"
     inkscape:zoom="0.5"
     inkscape:cx="166.66462"
     inkscape:cy="364.62943"
     inkscape:document-units="mm"
     inkscape:current-layer="layer2"
     showgrid="false"
     inkscape:window-width="1920"
     inkscape:window-height="1017"
     inkscape:window-x="1912"
     inkscape:window-y="-8"
     inkscape:window-maximized="1" />
  <metadata
     id="metadata5">
    <rdf:RDF>
      <cc:Work
         rdf:about="">
        <dc:format>image/svg+xml</dc:format>
        <dc:type
           rdf:resource="http://purl.org/dc/dcmitype/StillImage" />
        <dc:title />
      </cc:Work>
    </rdf:RDF>
  </metadata>
  <g
     inkscape:groupmode="layer"
     id="layer1"
     inkscape:label="Layer 3" />
  <g
     inkscape:groupmode="layer"
     id="layer2"
     inkscape:label="main"
     style="display:inline">
    <g
       id="g4552"
       transform="translate(-0.33063493,4.2564398)">
      <path
         sodipodi:nodetypes="cccsczccc"
         inkscape:connector-curvature="0"
         id="path843"
         d="m 70.050604,38.604147 c -2.205232,2.553262 -4.027877,3.825148 -6.863068,5.098455 -0.76813,-0.595312 -1.391876,-1.429197 -2.713474,-3.16515 -4.133786,1.636832 -9.342233,2.896628 -15.367571,2.803314 -11.582127,-0.179372 -14.14868,-1.768597 -18.534753,-4.572615 6.2956,6.553703 10.551529,5.80677 18.733191,5.961682 8.181663,0.154912 15.29575,-2.531275 15.29575,-2.531275 0,0 1.108678,1.052457 2.563471,1.761291 1.355575,-0.680228 4.296112,-1.707792 6.886454,-5.355702 z"
         style="display:inline;fill:#000000;fill-opacity:1;stroke:none;stroke-width:0.26458332px;stroke-linecap:butt;stroke-linejoin:miter;stroke-opacity:1" />
      <path
         inkscape:label="lips"
         sodipodi:nodetypes="ssscsscssccscsssssssssssss"
         style="display:inline;opacity:1;fill-rule:evenodd;stroke-width:0.26458332"
         inkscape:connector-curvature="0"
         id="颜色填充_1_拷贝-4"
         data-name="颜色填充 1 拷贝"
         class="cls-2"
         d="m 26.96472,34.677405 c 5.70328,-1.033021 8.846576,1.533602 17.741756,1.482606 8.861341,-0.0508 12.727726,-2.580939 19.941022,-0.162042 1.620357,0.543369 4.765148,1.946031 8.51196,3.003053 -3.108854,-0.396875 -4.17283,4.584344 -7.615098,6.186517 -4.871599,2.267443 -11.554712,4.605986 -13.857551,2.579687 -2.005516,-1.76468 -3.19974,-2.948937 -4.033702,-4.09573 -1.330057,0.109978 -3.489695,-0.431992 -5.395471,-0.424911 -2.691055,0.01 -6.170575,-0.374765 -8.56678,-0.896164 -2.774776,-0.603774 -4.549045,-2.353493 -7.119118,-3.58227 -0.689175,1.06948 -2.210957,2.099805 -3.750047,2.823967 -0.683717,-0.419317 -3.039182,-2.242095 -3.620955,-3.049359 -0.34556,-0.479496 -1.406005,-1.196936 -3.122542,-1.071242 1.393038,-0.475977 2.18082,-0.777798 2.716627,-0.908472 4.295723,-1.047651 3.194678,-0.984491 8.169899,-1.88564 z m 17.998885,-9.829708 c -3.939033,0.01726 -5.58828,-3.811006 -13.640479,-3.546423 -10.66896,0.350566 -23.0269406,9.485043 -24.6704475,11.021709 -1.7345229,1.621766 -3.2631063,3.284593 -2.1166667,5.136677 1.1464396,1.852083 7.6026892,6.141471 16.5967622,9.003622 9.859221,3.137464 17.085478,8.933474 23.806992,11.090942 9.108374,2.923603 13.812964,3.52762 20.424724,2.229016 12.709532,-2.496262 15.19222,-6.793343 16.515137,-10.850199 1.322916,-4.056857 0.396457,-6.581572 -0.906098,-9.482357 -2.648587,-5.898399 -14.957991,-16.911057 -21.885674,-17.574848 -6.810232,-0.652538 -9.546336,2.9518 -14.12425,2.971861 z" />
    </g>
  </g>
</svg>
