<?xml version="1.0" encoding="UTF-8" standalone="no"?>
<!-- Created with Inkscape (http://www.inkscape.org/) -->

<svg
   xmlns:dc="http://purl.org/dc/elements/1.1/"
   xmlns:cc="http://creativecommons.org/ns#"
   xmlns:rdf="http://www.w3.org/1999/02/22-rdf-syntax-ns#"
   xmlns:svg="http://www.w3.org/2000/svg"
   xmlns="http://www.w3.org/2000/svg"
   xmlns:sodipodi="http://sodipodi.sourceforge.net/DTD/sodipodi-0.dtd"
   xmlns:inkscape="http://www.inkscape.org/namespaces/inkscape"
   width="86mm"
   height="86mm"
   viewBox="0 0 86 86"
   version="1.1"
   id="svg8"
   inkscape:version="0.92.4 (5da689c313, 2019-01-14)"
   sodipodi:docname="bite_lip.svg">
  <defs
     id="defs2">
    <style
       id="style815">
      .cls-1 {
        fill: #fff;
      }

      .cls-1, .cls-2 {
        fill-rule: evenodd;
      }
    </style>
    <style
       id="style848">
      .cls-1 {
        fill: #fff;
      }

      .cls-1, .cls-2 {
        fill-rule: evenodd;
      }
    </style>
  </defs>
  <sodipodi:namedview
     id="base"
     pagecolor="#ffffff"
     bordercolor="#666666"
     borderopacity="1.0"
     inkscape:pageopacity="0.0"
     inkscape:pageshadow="2"
     inkscape:zoom="0.70710678"
     inkscape:cx="294.00171"
     inkscape:cy="317.6834"
     inkscape:document-units="mm"
     inkscape:current-layer="layer2"
     showgrid="false"
     inkscape:window-width="1920"
     inkscape:window-height="1017"
     inkscape:window-x="1912"
     inkscape:window-y="-8"
     inkscape:window-maximized="1" />
  <metadata
     id="metadata5">
    <rdf:RDF>
      <cc:Work
         rdf:about="">
        <dc:format>image/svg+xml</dc:format>
        <dc:type
           rdf:resource="http://purl.org/dc/dcmitype/StillImage" />
        <dc:title></dc:title>
      </cc:Work>
    </rdf:RDF>
  </metadata>
  <g
     inkscape:groupmode="layer"
     id="layer2"
     inkscape:label="Layer 2"
     style="display:inline">
    <g
       id="g1425"
       transform="translate(-0.08928662,-1.498206)">
      <g
         transform="matrix(0.26458333,0,0,0.26458333,73.882978,-106.09695)"
         id="g833">
        <g
           transform="translate(-291.42857,394.57142)"
           id="g866">
          <path
             sodipodi:nodetypes="csscscccccccsssscscccccccssscssscccccccccccssscssscccccccccccccccsccccccszcczssssc"
             inkscape:connector-curvature="0"
             id="颜色填充_2_拷贝-7"
             d="m 274.47656,160.69336 c -0.88099,-0.1428 -1.54579,0.6844 -2.36601,1.71191 0,0 -0.003,-8.5e-4 -0.004,0 -0.21589,0.24985 -2.3198,2.51478 -3.01135,3.22011 -1.27612,1.29658 -5.54959,2.79735 -6.28985,3.64288 -1.25412,1.43248 -1.11026,1.57623 -1.99104,4.28452 -0.54602,-0.85132 -1.28098,-1.76456 -2.3457,-2.37304 -2.4256,-1.38623 -8.39983,-2.52498 -18.76758,0.92383 -5.33759,1.77553 -7.85077,5.03516 -8.91015,7.83398 -0.0125,0.033 -0.005,0.0531 -0.0176,0.0859 -0.27599,-0.64899 -0.622,-1.26422 -1.14649,-1.73047 -0.63812,-0.56747 -1.0122,-1.04834 -1.54297,-1.53711 -0.53076,-0.48877 -2.80881,-0.0439 -4.5723,0.31796 -2.04014,0.41868 -1.84794,0.0568 -9.39284,0.19058 -4.29171,0.0761 -10.03488,-0.67937 -12.28958,-0.20948 -2.25473,0.4699 -2.95846,1.4098 -3.46364,2.072 -0.46914,0.61495 -0.88214,1.43452 -0.82656,1.97079 -0.26655,-0.56145 -0.30984,-0.84938 -0.71875,-1.56641 -0.432,-0.75752 -1.17798,-1.1819 -2.02929,-1.49609 -0.85132,-0.3142 -1.85806,-0.51351 -2.98243,-0.65039 -2.24873,-0.27377 -4.96618,-0.28314 -7.61523,-0.18165 -4.26902,0.16357 -6.8861,0.52151 -8.3125,0.69336 -0.69031,0.0232 -1.38834,0.10581 -2.07031,0.17816 l 0.3125,1.86328 c 1.67096,-0.12702 2.88015,-0.2774 4.21289,-0.12889 2.22856,0.2694 3.84451,1.88113 5.0664,4.35938 1.46102,2.96326 4.00995,5.22586 6.53711,7.38476 2.22993,1.90499 6.047,3.11634 11.62305,4.24805 5.74639,1.16628 16.37033,1.47419 25.39062,1.23242 9.0203,-0.24176 17.70805,-2.50523 20.10743,-3.08984 6.28307,-1.53088 13.9451,-4.88991 17.82031,-6.99024 3.72759,-2.02033 5.82272,-2.97873 8.49154,-4.35218 1.67682,-0.86293 4.10057,-2.13347 5.01237,-2.81774 0.91179,-0.68426 1.581,-1.66004 1.56054,-2.80078 -0.0278,-1.55145 -4e-5,-6.18026 -0.89843,-10.10351 -0.4492,-1.96163 -1.10404,-3.78097 -2.3086,-5.01368 -0.60228,-0.61635 -1.38072,-1.02907 -2.26172,-1.17187 z m -0.17646,1.79117 c 0.43654,-0.17215 0.70631,0.31182 1.08662,0.70102 0.76062,0.77839 1.40485,2.31798 1.8164,4.11523 0.82311,3.5945 0.82239,8.08925 0.85157,9.7168 0.008,0.44876 -0.17277,0.77967 -0.80469,1.2539 -0.63192,0.47424 -3.27385,2.02631 -4.52018,2.55212 -2.61474,1.10313 -4.69875,2.42836 -8.48568,4.34828 -4.09873,2.07799 -11.84222,5.40488 -17.30469,6.88476 -2.39741,0.6495 -11.06465,2.84741 -20.03711,3.08789 -8.97245,0.24049 -19.62523,-0.11159 -24.96484,-1.19531 -5.50995,-1.11829 -8.79323,-2.19193 -11.0918,-4.05469 -2.31111,-1.87292 -4.40907,-3.84676 -5.74804,-6.5625 -0.77389,-1.56961 -1.17671,-3.38219 -2.44922,-4.10547 0.79616,-0.05 0.79004,-0.10307 1.61718,-0.13476 2.59383,-0.0994 5.24535,-0.0839 7.31446,0.16797 1.03455,0.12594 1.9236,0.31519 2.55664,0.54882 0.63304,0.23364 0.96072,0.51593 1.04297,0.66016 1.00071,1.75477 1.46982,2.94199 1.6875,3.6582 0.17812,0.46714 0.20342,0.99688 0.24118,1.43079 0.0259,0.29832 0.27267,2.85052 0.27267,2.85052 l 1.82617,-0.0137 c 0,0 -0.23267,-2.53459 -0.24447,-2.81532 -0.0518,-0.86601 0.0421,-1.74362 0.1251,-2.42883 0.12654,-1.01728 0.34631,-2.08327 0.70117,-2.63086 0.58852,-0.97729 1.51486,-1.43301 2.42496,-1.61505 1.86329,-0.38833 7.60369,0.32739 11.93998,0.25049 7.5131,-0.13322 8.79324,-1.10632 10.3215,-0.69696 0.76412,0.20468 1.95195,-0.66092 2.32919,-0.31353 0.37724,0.34739 0.81548,0.89297 1.56836,1.5625 0.36941,0.3284 0.96447,1.73296 1.26367,3.00391 0.19673,0.79435 0.5371,4.32228 0.6488,5.12677 l 2.01705,-0.14757 c -0.02,-1.97856 -0.29824,-5.55752 0.25602,-7.08272 0.89062,-2.35293 2.87783,-5.09347 7.74024,-6.71094 10.03225,-3.33719 15.65802,-1.97594 17.23242,-1.07617 1.52889,0.87376 2.13123,2.06316 2.57617,3.49219 0.44494,1.42903 0.78512,4.89623 0.78512,4.89623 l 1.59937,-0.28433 c 0,0 -0.33196,-2.80599 -0.30096,-4.7369 0.031,-1.93091 0.82191,-4.42403 2.69091,-6.64818 0.34271,-0.40783 3.82927,-1.61176 5.14608,-2.83848 1.3168,-1.22672 1.67337,-1.43529 2.59147,-2.6123 0.91583,-1.17409 1.37363,-1.48286 1.68069,-1.60396 z"
             style="color:#000000;font-style:normal;font-variant:normal;font-weight:normal;font-stretch:normal;font-size:medium;line-height:normal;font-family:sans-serif;font-variant-ligatures:normal;font-variant-position:normal;font-variant-caps:normal;font-variant-numeric:normal;font-variant-alternates:normal;font-feature-settings:normal;text-indent:0;text-align:start;text-decoration:none;text-decoration-line:none;text-decoration-style:solid;text-decoration-color:#000000;letter-spacing:normal;word-spacing:normal;text-transform:none;writing-mode:lr-tb;direction:ltr;text-orientation:mixed;dominant-baseline:auto;baseline-shift:baseline;text-anchor:start;white-space:normal;shape-padding:0;clip-rule:nonzero;display:inline;overflow:visible;visibility:visible;opacity:1;isolation:auto;mix-blend-mode:normal;color-interpolation:sRGB;color-interpolation-filters:linearRGB;solid-color:#000000;solid-opacity:1;vector-effect:none;fill:#000000;fill-opacity:1;fill-rule:evenodd;stroke:none;stroke-width:1.88976383;stroke-linecap:butt;stroke-linejoin:miter;stroke-miterlimit:4;stroke-dasharray:none;stroke-dashoffset:0;stroke-opacity:1;color-rendering:auto;image-rendering:auto;shape-rendering:auto;text-rendering:auto;enable-background:accumulate" />
          <path
             sodipodi:nodetypes="cccccsccccccccccsccscccccscccccssscccccssssccccscsccsczcccccccsccccsccsszccsccsccccc"
             inkscape:connector-curvature="0"
             id="颜色填充_2-9"
             d="m 109.9707,133.05465 -0.0137,0.002 h -0.0137 c -5.79816,0.45411 -11.511855,1.16072 -16.44336,2.07613 -1.264831,1.55056 -1.620685,2.80567 -1.810547,4.11328 -0.32769,2.3878 0.29586,5.72618 3.609375,9.38868 6.433142,7.11069 12.925402,10.9516 18.642582,11.30859 h 0.002 c 2.96452,0.17641 8.49942,0.31094 11.4656,0.17678 -0.12544,1.24186 -0.1174,2.54327 0.086,3.54687 0.56344,2.67039 2.54635,5.88558 7.58398,7.92579 5.02517,2.03592 10.0565,4.0566 17.66721,5.40525 7.61071,1.34864 14.81572,2.13475 19.98438,0.6289 4.6597,-1.35769 7.0339,-3.17659 8.34375,-4.82812 0.6997,1.95199 2.14603,3.60464 4.21875,4.33008 1.58044,0.64314 1.09628,0.77616 5.11328,1.13867 4.03315,0.36396 12.81877,0.63367 17.63477,0.77734 4.81599,0.14367 9.53283,0.16086 13.1914,0.0156 1.82929,-0.0726 3.39132,-0.18398 4.5918,-0.34766 2.04101,-0.54545 4.3016,-0.88541 5.92969,-1.49414 2.01993,-0.75524 4.3733,-2.22346 5.15429,-4.95898 v -0.002 l 0.002,-0.002 c 0.60966,-2.16672 1.02953,-4.3779 1.46289,-6.58594 0.45745,0.73985 0.85312,1.48612 1.74804,2.28516 2.53447,2.26292 7.07441,4.32957 14.91993,3.98828 7.79762,-0.3392 12.86586,-2.19105 16.1875,-4.51172 3.32163,-2.32067 4.85719,-5.10197 5.64843,-7.08008 0.88983,-2.22457 0.81973,-5.49173 0.62891,-8.32226 -0.12275,-2.16053 -0.39784,-3.9233 -0.64847,-5.63868 -16.02632,-6.62059 -21.86929,-8.68787 -34.89258,-8.33398 -17.98573,0.66647 -47.02383,1.32837 -57.93554,0.99805 -5.4032,-0.16357 -16.00982,-1.32725 -26.80274,-2.49414 -10.79291,-1.16689 -21.78048,-2.33707 -28.20117,-2.50586 -6.30452,-0.16574 -7.752,-0.47936 -9.10156,-0.73242 -2.55375,-0.47492 -5.70629,-0.3358 -7.95318,-0.26747 z m 0.0586,1.89066 h 0.004 c 5.30257,-0.16534 6.22672,-0.0124 7.54297,0.23438 1.31694,0.24694 3.03596,0.59836 9.39844,0.76562 6.24631,0.16421 17.25849,1.32753 28.04883,2.49414 10.79033,1.16661 21.35046,2.33643 26.94726,2.50586 11.08829,0.33568 40.05019,-0.33442 58.06446,-1.00195 16.98266,-0.6293 31.90997,7.05968 33.08398,7.67773 0.0583,0.37284 0.33314,2.06198 0.5,4.53711 0.18418,2.73197 0.11408,5.96481 -0.49609,7.49024 -0.70876,1.77189 -2.00645,4.15734 -4.97657,6.23242 -2.97011,2.07508 -7.65212,3.84798 -15.1875,4.17578 -7.48748,0.32571 -11.44779,-1.60789 -13.58007,-3.51172 -1.06614,-0.95192 -1.65505,-1.41062 -2.25957,-3.13776 -0.39479,-1.12792 -0.44161,-6.11614 -0.44161,-6.11614 l -1.85937,0.0234 c 0.0657,1.57822 0.12072,5.49299 0.009,6.61734 -0.14965,1.5126 -1.32622,6.34892 -1.738,7.81235 -0.55338,1.93074 -2.06257,2.88444 -4.00586,3.70703 -1.94329,0.82259 -3.88011,1.11041 -5.51562,1.38864 -1.09578,0.14941 -2.61618,0.26082 -4.41016,0.33204 -3.58795,0.14242 -8.27887,0.12707 -13.0625,-0.0156 -4.78362,-0.1427 -13.53989,-0.41235 -17.51953,-0.77148 -3.97963,-0.35914 -3.68093,-0.63318 -4.59179,-1.00782 l -0.0254,-0.0117 -0.0254,-0.008 c -2.31439,-0.72894 -3.41022,-3.96181 -3.41198,-5.62863 -0.002,-1.593 -0.43313,-7.94386 -0.339,-10.00773 l -1.86523,-0.0937 c -0.0382,1.35799 0.41758,9.0722 0.30729,10.19105 -0.0812,0.36687 -0.0492,1.01042 -0.67578,2.31445 -0.76904,1.60056 -0.38606,1.69269 -5.06055,3.05469 -4.55534,1.32716 -14.33746,1.27382 -21.8125,-0.0508 -7.47504,-1.32461 -12.43851,-3.3318 -17.28635,-5.29588 -4.57736,-1.85379 -5.99475,-4.42713 -6.44531,-6.5625 -0.22528,-1.06768 -0.25099,-2.07119 -0.20971,-2.87996 0.0413,-0.80877 0.75432,-7.81581 0.75432,-7.81581 l -1.49404,-0.18132 c 0,0 -0.43449,3.2754 -0.47615,4.16999 -0.0656,1.40878 -1.64675,1.92971 -2.78011,1.94086 -3.29235,0.19592 -5.78782,-0.25968 -9.08018,-0.45552 h -0.002 c -4.94853,-0.30973 -11.12335,-3.80292 -17.355468,-10.69141 -3.019485,-3.3375 -3.396185,-5.99912 -3.140625,-7.86132 0.212966,-1.55184 0.780524,-2.35693 0.994141,-2.63672 5.112468,-0.96479 10.280812,-1.61352 15.474612,-1.92188 z"
             style="color:#000000;font-style:normal;font-variant:normal;font-weight:normal;font-stretch:normal;font-size:medium;line-height:normal;font-family:sans-serif;font-variant-ligatures:normal;font-variant-position:normal;font-variant-caps:normal;font-variant-numeric:normal;font-variant-alternates:normal;font-feature-settings:normal;text-indent:0;text-align:start;text-decoration:none;text-decoration-line:none;text-decoration-style:solid;text-decoration-color:#000000;letter-spacing:normal;word-spacing:normal;text-transform:none;writing-mode:lr-tb;direction:ltr;text-orientation:mixed;dominant-baseline:auto;baseline-shift:baseline;text-anchor:start;white-space:normal;shape-padding:0;clip-rule:nonzero;display:inline;overflow:visible;visibility:visible;opacity:1;isolation:auto;mix-blend-mode:normal;color-interpolation:sRGB;color-interpolation-filters:linearRGB;solid-color:#000000;solid-opacity:1;vector-effect:none;fill:#000000;fill-opacity:1;fill-rule:evenodd;stroke:none;stroke-width:1.88976383;stroke-linecap:butt;stroke-linejoin:miter;stroke-miterlimit:4;stroke-dasharray:none;stroke-dashoffset:0;stroke-opacity:1;color-rendering:auto;image-rendering:auto;shape-rendering:auto;text-rendering:auto;enable-background:accumulate" />
        </g>
      </g>
      <path
         sodipodi:nodetypes="cscccscsssssscssssssssscs"
         style="opacity:1;fill-rule:evenodd"
         inkscape:connector-curvature="0"
         id="颜色填充_1_拷贝-4"
         data-name="颜色填充 1 拷贝"
         class="cls-2"
         d="m 74,140 c 17.333,-3 26.667,-2 48,-2 21.333,0 18.725,2.336 56,5 37.338,2.668 43.011,-3.708 76,2 33.538,5.8 30,12.667 56,17 -15,2 -35.333,17 -54,25 -18.667,8 -59,10.333 -66,1 -8.21,-10.946 -7.61906,-7.34642 -10.91789,-16.76624 0,0 -1.59963,4.43922 -11.67183,5.85345 -10.07219,1.41423 -29.0323,-3.84703 -32.30148,-5.06017 -13.28064,-4.92821 -8.81308,-11.69592 -8.82631,-13.33725 0,0 -14.61872,0.76523 -20.58059,-2.32704 C 100.72214,153.77988 92.757044,143.16101 92.757044,143.16101 87.010846,142.13404 79.25,140.83325 74,140 Z m 112,-34 c -29,-0.333 -30.667,-19 -71,-18 -40.333,1 -80.667,32.667 -89,36 -8.333,3.333 -12.333,11 -8,18 4.333,7 17.333,36.667 50,51 32.667,14.333 70.939,48.26 102,55 35.333,7.667 57.333,25 100,1 42.667,-24 53,-54.667 58,-70 5,-15.333 8,-15.667 4,-27 -4,-11.333 -27.667,-47.667 -76,-59 -29.361,-6.885 -41,13.333 -70,13 z"
         transform="matrix(0.26458333,0,0,0.26458333,-3.2241646,-1.6999298)" />
    </g>
  </g>
</svg>
