<svg id="组_1" data-name="组 1" xmlns="http://www.w3.org/2000/svg" width="350" height="350" viewBox="0 0 350 350">
  <defs>
    <style>
      .cls-1 {
        fill: #fff;
      }

      .cls-1, .cls-2 {
        fill-rule: evenodd;
      }
    </style>
  </defs>
  <path id="颜色填充_2_拷贝" data-name="颜色填充 2 拷贝" class="cls-1" d="M174,179s19.943-2.607,22,1,2,5,2,5,0.067-3.578,1-5c2.9-4.414,5.372-3.847,14-4,15.058-.267,13.218.526,16,3,1.486,1.321,2,6,2,6s-1.2-8.607,9-12,16-2.143,18-1,3,4,3,4a19.766,19.766,0,0,1,11-14c7.057-3.25,6.943,11.821,7,15s-6.914,4.107-15,7-12.057,8.679-17,9-32.914,2.25-44,0-15.2-4.321-18-10S174,179,174,179Z"/>
  <path id="颜色填充_1" data-name="颜色填充 1" class="cls-2" d="M74,140c17.333-3,26.667-2,48-2s18.667,3.333,56,5,44-7.333,77,1,29,13.667,55,18c-15,2-35.333,17-54,25s-59,10.333-66,1c-8.21-10.946-4.667-8.333-10-18s-38-18-47-19S95,143.333,74,140Zm112-34c-29-.333-30.667-19-71-18s-80.667,32.667-89,36-12.333,11-8,18,17.333,36.667,50,51,70.939,48.26,102,55c35.333,7.667,57.333,25,100,1s53-54.667,58-70,8-15.667,4-27-27.667-47.667-76-59C226.639,86.115,215,106.333,186,106Z"/>
  <path id="颜色填充_2" data-name="颜色填充 2" class="cls-1" d="M108,134a123.594,123.594,0,0,0-16,2s-4.333,5,2,12,12.667,10.667,18,11a84.172,84.172,0,0,0,10,0c0.071-.037-2.744,7.646,6.871,11.54,9.873,4,30.246,8.763,39.97,5.93C178.468,173.665,178,169,178,169a6.121,6.121,0,0,0,4,7c4.972,2.045,39.931,3.167,41.838,1.169,0,0,6.829-.5,8.162-5.169a82.928,82.928,0,0,0,2-9s1.667,8.667,17,8,19.5-7.25,21-11,0-13,0-13-16-8.667-34-8-47,1.333-58,1-42.333-4.667-55-5S118.667,133.667,108,134Z"/>
  <path id="颜色填充_1_拷贝" data-name="颜色填充 1 拷贝" class="cls-2" d="M74,140c17.333-3,26.667-2,48-2s18.725,2.336,56,5c37.338,2.668,43.011-3.708,76,2,33.538,5.8,30,12.667,56,17-15,2-35.333,17-54,25s-59,10.333-66,1c-8.21-10.946-4.667-8.333-10-18s-38-18-47-19S95,143.333,74,140Zm112-34c-29-.333-30.667-19-71-18s-80.667,32.667-89,36-12.333,11-8,18,17.333,36.667,50,51,70.939,48.26,102,55c35.333,7.667,57.333,25,100,1s53-54.667,58-70,8-15.667,4-27-27.667-47.667-76-59C226.639,86.115,215,106.333,186,106Z"/>
</svg>
